<?xml version="1.0" encoding="UTF-8" standalone="no"?>
<!-- Generator: Adobe Illustrator 16.0.0, SVG Export Plug-In . SVG Version: 6.00 Build 0)  -->

<svg
   xmlns:dc="http://purl.org/dc/elements/1.1/"
   xmlns:cc="http://creativecommons.org/ns#"
   xmlns:rdf="http://www.w3.org/1999/02/22-rdf-syntax-ns#"
   xmlns:svg="http://www.w3.org/2000/svg"
   xmlns="http://www.w3.org/2000/svg"
   xmlns:sodipodi="http://sodipodi.sourceforge.net/DTD/sodipodi-0.dtd"
   xmlns:inkscape="http://www.inkscape.org/namespaces/inkscape"
   version="1.1"
   id="Capa_1"
   x="0px"
   y="0px"
   width="14"
   height="14"
   viewBox="0 0 16.8 16.8"
   xml:space="preserve"
   sodipodi:docname="babbz.svg"
   inkscape:export-filename="C:\Users\hoggar\Desktop\bab.png"
   inkscape:export-xdpi="4.5"
   inkscape:export-ydpi="4.5"
   inkscape:version="0.92.1 r15371"><metadata
     id="metadata59"><rdf:RDF><cc:Work
         rdf:about=""><dc:format>image/svg+xml</dc:format><dc:type
           rdf:resource="http://purl.org/dc/dcmitype/StillImage" /><dc:title></dc:title></cc:Work></rdf:RDF></metadata><defs
     id="defs57" /><sodipodi:namedview
     pagecolor="#ffffff"
     bordercolor="#666666"
     borderopacity="1"
     objecttolerance="10"
     gridtolerance="10"
     guidetolerance="10"
     inkscape:pageopacity="0"
     inkscape:pageshadow="2"
     inkscape:window-width="1366"
     inkscape:window-height="705"
     id="namedview55"
     showgrid="false"
     inkscape:zoom="8"
     inkscape:cx="38.44403"
     inkscape:cy="17.791045"
     inkscape:window-x="-8"
     inkscape:window-y="-8"
     inkscape:window-maximized="1"
     inkscape:current-layer="Capa_1"
     scale-x="1.2" /><g
     id="g22"
     transform="matrix(0.04219626,0,0,0.04437303,0.0573709,-0.4687732)"><g
       id="g20"><path
         d="M 343.958,146.179 C 325.039,93.998 277.964,55.98 222.985,46.77 c -0.913,-0.335 -1.894,-0.591 -3.002,-0.654 -0.688,-0.037 -1.431,-0.03 -2.125,-0.061 -6.808,-0.911 -13.683,-1.48 -20.673,-1.48 -65.69,0 -124.956,41.422 -146.779,101.604 C 22.56,146.505 0,169.257 0,197.194 c 0,27.925 22.56,50.686 50.412,51.009 21.823,60.179 81.083,101.604 146.779,101.604 25.574,0 50.132,-6.352 71.919,-17.567 -4.999,-4.372 -9.84,-9.17 -14.145,-14.327 -17.769,8.189 -37.4,12.817 -57.78,12.817 -59.984,0 -113.825,-39.214 -130.941,-95.356 l -2.399,-7.867 -8.126,1.218 c -1.827,0.274 -3.331,0.39 -4.707,0.39 -17.61,0 -31.932,-14.321 -31.932,-31.932 0,-17.604 14.322,-31.935 31.932,-31.935 1.376,0 2.88,0.131 4.719,0.393 l 8.12,1.2 2.393,-7.858 c 11.603,-38.06 40.112,-68.29 75.947,-83.838 -8.001,17.719 2.862,39.555 20.968,48.08 22.566,10.62 59.071,11.996 74.465,-11.094 6.941,-10.407 0.779,-23.568 -7.612,-30.689 -11.764,-9.971 -28.825,-11.387 -42.785,-5.849 -11.298,4.484 -6.378,22.947 5.075,18.407 8.3,-3.285 15.851,-3.535 23.814,0.834 10.925,6.007 0.859,12.863 -6.776,15.059 -14.23,4.092 -35.226,0.755 -46.354,-9.234 -14.042,-12.607 4.046,-26.917 15.238,-30.832 12.142,-4.253 25.478,-5.194 38.319,-4.729 51.916,7.39 96.343,43.879 111.59,93.892 l 2.399,7.858 8.123,-1.199 c 1.826,-0.269 3.336,-0.393 4.713,-0.393 17.609,0 31.932,14.325 31.932,31.941 0,17.598 -14.322,31.931 -31.932,31.931 -1.377,0 -2.887,-0.127 -4.701,-0.396 l -8.135,-1.212 -2.399,7.867 c -0.853,2.789 -1.863,5.523 -2.893,8.232 2.893,-0.682 5.9,-1.071 8.994,-1.071 6.795,0 13.177,1.705 18.778,4.713 23.517,-4.53 41.37,-25.228 41.37,-50.064 -0.006,-27.94 -22.566,-50.698 -50.424,-51.018 z"
         id="path10"
         inkscape:connector-curvature="0"
         style="fill:#006df0" /><path
         d="m 156.893,190.563 c -16.404,0 -16.404,25.441 0,25.441 16.404,0 16.41,-25.441 0,-25.441 z"
         id="path12"
         inkscape:connector-curvature="0"
         style="fill:#006df0" /><path
         d="m 237.471,188.974 c -16.41,0 -16.41,25.446 0,25.446 16.404,-0.006 16.41,-25.446 0,-25.446 z"
         id="path14"
         inkscape:connector-curvature="0"
         style="fill:#006df0" /><path
         d="m 197.185,279.885 c 20.685,0 37.527,-16.836 37.527,-37.521 0,-5.285 -4.28,-9.541 -9.548,-9.541 -5.261,0 -9.535,4.262 -9.535,9.541 0,10.169 -8.275,18.438 -18.438,18.438 -10.163,0 -18.444,-8.269 -18.444,-18.438 0,-5.285 -4.271,-9.541 -9.539,-9.541 -5.271,0 -9.542,4.262 -9.542,9.541 -0.005,20.685 16.831,37.521 37.519,37.521 z"
         id="path16"
         inkscape:connector-curvature="0"
         style="fill:#006df0" /><path
         d="m 306.802,259.882 c -38.478,-22.073 -91.216,39.78 0,86.558 92.171,-47.277 37.296,-107.937 0,-86.558 z m 0,64.91 c -45.565,-27.023 -32.803,-50.284 -16.776,-50.284 7.496,0 11.192,5.048 16.776,10.34 5.571,-5.279 9.273,-10.334 16.775,-10.334 14.115,0 30.654,22.074 -16.775,50.278 z"
         id="path18"
         inkscape:connector-curvature="0"
         style="fill:#006df0" /></g></g><g
     id="g24"
     transform="translate(0,-383.59814)" /><g
     id="g26"
     transform="translate(0,-383.59814)" /><g
     id="g28"
     transform="translate(0,-383.59814)" /><g
     id="g30"
     transform="translate(0,-383.59814)" /><g
     id="g32"
     transform="translate(0,-383.59814)" /><g
     id="g34"
     transform="translate(0,-383.59814)" /><g
     id="g36"
     transform="translate(0,-383.59814)" /><g
     id="g38"
     transform="translate(0,-383.59814)" /><g
     id="g40"
     transform="translate(0,-383.59814)" /><g
     id="g42"
     transform="translate(0,-383.59814)" /><g
     id="g44"
     transform="translate(0,-383.59814)" /><g
     id="g46"
     transform="translate(0,-383.59814)" /><g
     id="g48"
     transform="translate(0,-383.59814)" /><g
     id="g50"
     transform="translate(0,-383.59814)" /><g
     id="g52"
     transform="translate(0,-383.59814)" /></svg>